<svg width="3575" height="1170" viewBox="0 0 3575 1170" fill="none" xmlns="http://www.w3.org/2000/svg">
<path d="M1594.3 367.208C1625.73 410.97 1662 456.789 1703.12 504.664L1702.24 511.273C1685.8 515.385 1666.41 518.762 1644.09 521.406L1637.04 517.881C1598.56 466.775 1564.35 417.726 1534.39 370.732L1533.51 427.125L1535.71 517H1476.23L1479.32 432.411L1476.23 233.275H1536.59L1534.39 365.005L1614.13 260.591L1630.43 233.275H1694.75L1594.3 367.208ZM1863.92 429.327C1883.6 457.817 1901.96 482.783 1918.99 504.224L1918.55 510.392C1900.34 515.972 1882.43 519.35 1864.81 520.525L1856.88 515.238C1840.43 486.748 1827.65 463.398 1818.55 445.188H1784.62V445.628L1786.82 517H1731.31L1733.52 450.915L1731.31 294.514L1827.36 294.074C1852.32 294.074 1871.56 299.948 1885.07 311.696C1898.88 323.151 1905.78 339.599 1905.78 361.04C1905.78 374.844 1902.11 387.767 1894.76 399.809C1887.42 411.558 1877.14 421.397 1863.92 429.327ZM1785.5 402.893L1818.55 404.656C1828.53 401.425 1835.87 396.725 1840.57 390.558C1845.27 384.39 1847.62 376.459 1847.62 366.767C1847.62 356.193 1844.54 348.41 1838.37 343.417C1832.2 338.13 1822.51 335.193 1809.29 334.606L1786.82 335.487L1785.5 402.893ZM2152.24 517H2096.28L2090.12 484.839L2086.15 472.062L2041.21 471.622L2001.56 472.503L1998.48 481.755L1991.87 517H1937.68L2015.66 294.514H2081.31L2152.24 517ZM2074.26 430.208L2049.14 345.179H2045.62L2016.1 430.208L2044.74 430.649L2074.26 430.208ZM2370.7 407.74L2370.25 441.663C2370.55 466.922 2362.18 486.454 2345.14 500.258C2328.4 513.769 2304.32 520.525 2272.89 520.525C2242.34 520.525 2218.99 513.769 2202.84 500.258C2186.69 486.454 2179.05 466.922 2179.93 441.663L2180.37 406.858L2179.05 294.514H2234.56L2231.92 433.733C2231.62 448.125 2235 458.698 2242.05 465.454C2249.39 472.209 2260.41 475.587 2275.09 475.587C2290.07 475.587 2301.09 472.209 2308.14 465.454C2315.48 458.405 2319 447.831 2318.71 433.733L2316.51 294.514H2372.46L2370.7 407.74ZM2563.06 402.012C2578.63 405.83 2590.09 411.998 2597.43 420.516C2605.07 428.74 2608.88 439.754 2608.88 453.558C2608.88 475.88 2599.63 492.328 2581.13 502.902C2562.62 513.475 2535.16 518.762 2498.74 518.762C2482.59 518.762 2459.83 518.175 2430.45 517L2432.66 450.915L2430.45 294.514L2519.89 294.074C2544.56 294.074 2563.8 298.92 2577.6 308.612C2591.7 318.305 2598.75 332.256 2598.75 350.466C2598.75 362.214 2595.67 372.494 2589.5 381.306C2583.33 390.117 2574.52 397.019 2563.06 402.012ZM2541.04 357.956C2541.04 348.851 2537.81 342.536 2531.34 339.011C2525.18 335.487 2514.16 333.725 2498.3 333.725H2484.64L2483.76 386.152L2515.92 387.033C2524.44 384.977 2530.76 381.746 2534.87 377.341C2538.98 372.641 2541.04 366.18 2541.04 357.956ZM2508.43 479.992C2522.53 479.992 2533.25 477.643 2540.6 472.943C2548.23 467.95 2552.05 460.608 2552.05 450.915C2552.05 443.866 2549.55 438.286 2544.56 434.174C2539.57 430.062 2531.93 426.831 2521.65 424.481L2483.32 425.362L2482.88 445.628L2483.76 478.671C2493.16 479.552 2501.39 479.992 2508.43 479.992ZM2810.93 472.062L2814.45 475.587L2810.49 517H2658.05L2660.25 450.915L2658.05 294.514H2812.69L2815.77 298.92L2812.25 339.892L2754.98 337.69H2713.56L2712.68 382.627L2752.33 383.068L2790.66 381.746L2793.75 385.711L2790.22 427.565L2748.37 426.243H2711.8L2711.36 445.628L2712.24 473.825H2751.01L2810.93 472.062Z" fill="#2D3342"/>
<path d="M3165.33 517H3075.89L3067.96 469.859L3067.52 468.538L3024.35 467.657L2988.22 469.419L2980.73 517H2894.38L2980.73 231.954H3087.35L3165.33 517ZM3054.31 404.215L3034.92 310.815H3029.63L3004.96 404.215L3029.63 404.656L3054.31 404.215ZM3331.4 231.513C3363.42 231.513 3387.94 239.443 3404.98 255.304C3422.3 270.87 3430.97 293.192 3430.97 322.27C3430.97 344.886 3425.68 364.858 3415.11 382.187C3404.54 399.222 3389.56 412.586 3370.17 422.278C3350.79 431.677 3328.46 436.376 3303.21 436.376H3281.62L3284.7 517H3196.15L3200.55 433.292L3196.15 231.954L3331.4 231.513ZM3315.54 374.697C3323.47 370.291 3329.2 364.711 3332.72 357.956C3336.54 350.907 3338.45 341.948 3338.45 331.081C3338.45 318.158 3335.37 308.759 3329.2 302.885C3323.03 296.717 3313.34 293.339 3300.12 292.752L3284.26 294.074L3282.5 372.935L3315.54 374.697ZM3542.33 424.481L3545.86 517H3457.3L3461.71 433.292L3457.3 231.954H3547.18L3542.33 424.481Z" fill="#8798C3"/>
<path d="M2020.61 684H2005.19L1981.98 614.906H1980.68L1956.16 684H1940.74L1902.85 564.943H1917.71L1919.76 576.459L1948.73 667.47H1950.03L1975.66 595.033L1965.63 564.943H1980.86L1983.65 577.759L2013 667.47H2014.11L2046.43 577.202L2049.21 564.943H2063.33L2020.61 684ZM2094.83 655.025L2095.2 684H2081.45L2082.01 656.14L2081.45 591.504H2095.38L2094.83 655.025ZM2185.49 592.618L2184.56 604.319L2167.28 603.019H2158L2157.44 655.025L2158 684H2144.07L2144.63 656.14L2144.25 603.019H2134.97L2117.32 604.319L2116.21 603.019L2117.32 591.504H2184.74L2185.49 592.618ZM2284.95 655.025L2285.32 684H2271.58L2272.14 656.14L2271.95 643.51L2221.62 643.695L2221.43 655.025L2221.8 684H2208.06L2208.62 656.14L2208.06 591.504H2221.99L2221.62 631.251L2246.69 631.437L2271.95 631.251L2271.58 591.504H2285.51L2284.95 655.025ZM2399.13 673.599L2398.2 684H2348.98L2349.54 656.14L2348.98 591.504H2362.91L2362.36 655.025L2362.73 672.299H2398.39L2399.13 673.599ZM2449.24 590.389C2462.74 590.389 2473.08 594.352 2480.26 602.276C2487.57 610.201 2491.22 621.407 2491.22 635.894C2491.22 651.62 2487.32 663.817 2479.52 672.484C2471.84 681.028 2460.82 685.3 2446.46 685.3C2433.08 685.3 2422.74 681.276 2415.44 673.227C2408.13 665.055 2404.48 653.477 2404.48 638.495C2404.48 623.141 2408.38 611.315 2416.18 603.019C2423.98 594.599 2435 590.389 2449.24 590.389ZM2447.94 602.091C2438.16 602.091 2430.86 604.877 2426.03 610.449C2421.32 616.021 2418.97 624.812 2418.97 636.823C2418.97 649.701 2421.32 659.049 2426.03 664.869C2430.73 670.689 2437.91 673.599 2447.57 673.599C2457.48 673.599 2464.85 670.751 2469.67 665.055C2474.5 659.359 2476.92 650.444 2476.92 638.309C2476.92 625.803 2474.5 616.64 2469.67 610.82C2464.97 605 2457.73 602.091 2447.94 602.091ZM2550.47 684H2533.94L2501.62 591.504H2515.93L2518.15 601.719L2542.11 670.256H2543.04L2569.6 602.276L2571.83 591.504H2585.76L2550.47 684ZM2662.66 672.113L2663.77 673.227L2662.47 684H2606.19L2606.75 656.14L2606.19 591.504H2662.84L2663.77 592.618L2662.66 603.391L2639.25 602.648L2619.94 602.833L2619.75 630.88L2638.14 631.065L2654.3 630.508L2655.23 631.808L2654.11 642.767L2637.03 642.209L2619.75 642.395L2619.57 655.025L2619.75 672.67L2637.95 672.856L2662.66 672.113ZM2730.38 602.833L2730.19 633.294L2746.17 633.48L2762.51 632.923L2763.44 634.223L2762.51 644.81L2744.86 644.624L2730.01 644.81V655.025L2730.38 684H2716.63L2717 656.14L2716.63 591.504H2770.5L2771.24 592.618L2770.13 603.391L2747.28 602.648L2730.38 602.833ZM2825.61 590.389C2839.11 590.389 2849.45 594.352 2856.63 602.276C2863.94 610.201 2867.59 621.407 2867.59 635.894C2867.59 651.62 2863.69 663.817 2855.89 672.484C2848.21 681.028 2837.19 685.3 2822.83 685.3C2809.45 685.3 2799.11 681.276 2791.81 673.227C2784.5 665.055 2780.85 653.477 2780.85 638.495C2780.85 623.141 2784.75 611.315 2792.55 603.019C2800.35 594.599 2811.37 590.389 2825.61 590.389ZM2824.31 602.091C2814.53 602.091 2807.22 604.877 2802.4 610.449C2797.69 616.021 2795.34 624.812 2795.34 636.823C2795.34 649.701 2797.69 659.049 2802.4 664.869C2807.1 670.689 2814.28 673.599 2823.94 673.599C2833.85 673.599 2841.21 670.751 2846.04 665.055C2850.87 659.359 2853.29 650.444 2853.29 638.309C2853.29 625.803 2850.87 616.64 2846.04 610.82C2841.34 605 2834.09 602.091 2824.31 602.091ZM2935.13 646.667C2942.68 658.183 2951.04 669.513 2960.2 680.657L2960.02 682.514C2954.82 684.124 2950.55 685.053 2947.2 685.3L2944.79 683.814C2935.38 669.575 2928.26 658.368 2923.43 650.196L2905.97 650.382V655.025L2906.34 684H2892.6L2893.15 656.14L2892.6 591.504L2924.17 591.318C2933.95 591.318 2941.44 593.609 2946.65 598.19C2951.97 602.772 2954.63 609.396 2954.63 618.064C2954.63 624.379 2952.9 630.013 2949.43 634.966C2946.09 639.919 2941.32 643.819 2935.13 646.667ZM2906.15 638.866L2923.61 639.423C2934.63 636.328 2940.14 629.579 2940.14 619.178C2940.14 613.73 2938.53 609.644 2935.32 606.92C2932.1 604.196 2927.2 602.71 2920.64 602.462L2906.34 602.648L2906.15 638.866ZM3058.48 564.015C3070.99 564.015 3081.82 566.986 3090.99 572.93L3088.01 586.489L3086.34 586.86C3078.05 579.926 3068.51 576.459 3057.74 576.459C3045.98 576.459 3036.94 580.545 3030.62 588.718C3024.31 596.766 3021.15 608.591 3021.15 624.193C3021.15 639.919 3024.31 651.93 3030.62 660.226C3036.94 668.522 3045.85 672.67 3057.37 672.67C3062.82 672.67 3068.2 671.68 3073.53 669.698C3078.98 667.717 3083.93 664.931 3088.39 661.34L3090.24 662.269L3088.94 676.385C3078.17 682.328 3067.21 685.3 3056.07 685.3C3040.09 685.3 3027.71 680.161 3018.92 669.884C3010.13 659.483 3005.73 644.686 3005.73 625.493C3005.73 605.805 3010.32 590.637 3019.48 579.988C3028.64 569.339 3041.64 564.015 3058.48 564.015ZM3161.66 673.599L3160.74 684H3111.52L3112.07 656.14L3111.52 591.504H3125.45L3124.89 655.025L3125.26 672.299H3160.92L3161.66 673.599ZM3253.97 684H3240.04L3237.81 673.97L3232.98 660.226L3210.88 660.04L3191.19 660.226L3186.17 673.227L3183.57 684H3169.83L3205.49 591.504H3221.46L3253.97 684ZM3229.08 648.896L3213.66 605.062H3212.55L3195.65 648.896L3211.99 649.082L3229.08 648.896ZM3345 638.495V651.868C3345.12 662.393 3341.9 670.565 3335.34 676.385C3328.9 682.205 3319.62 685.114 3307.48 685.114C3295.47 685.114 3286.31 682.266 3279.99 676.571C3273.68 670.751 3270.64 662.517 3270.89 651.868L3271.08 637.752L3270.89 591.504H3284.82L3284.08 649.639C3283.95 657.44 3285.87 663.321 3289.84 667.284C3293.92 671.246 3299.99 673.227 3308.04 673.227C3315.96 673.227 3321.97 671.246 3326.05 667.284C3330.14 663.321 3332.12 657.44 3332 649.639L3331.44 591.504H3345.56L3345 638.495ZM3412.02 590.761C3426.13 590.761 3436.91 594.537 3444.34 602.091C3451.89 609.644 3455.67 620.478 3455.67 634.594C3455.67 650.815 3451.58 663.26 3443.41 671.927C3435.23 680.595 3423.53 684.929 3408.3 684.929C3403.97 684.929 3398.77 684.805 3392.7 684.557C3386.76 684.433 3381.12 684.248 3375.8 684L3376.36 656.14L3375.8 591.504L3412.02 590.761ZM3410.53 673.599C3420.44 673.599 3428.05 670.627 3433.38 664.683C3438.83 658.616 3441.55 649.515 3441.55 637.38C3441.55 625.493 3439.01 616.702 3433.93 611.006C3428.86 605.31 3421.18 602.462 3410.9 602.462C3404.84 602.462 3397.72 602.71 3389.54 603.205L3389.17 655.025L3389.36 672.484C3392.95 672.732 3396.73 672.98 3400.69 673.227C3404.65 673.475 3407.93 673.599 3410.53 673.599ZM3537.46 672.113L3538.58 673.227L3537.28 684H3481L3481.56 656.14L3481 591.504H3537.65L3538.58 592.618L3537.46 603.391L3514.06 602.648L3494.75 602.833L3494.56 630.88L3512.95 631.065L3529.11 630.508L3530.04 631.808L3528.92 642.767L3511.83 642.209L3494.56 642.395L3494.37 655.025L3494.56 672.67L3512.76 672.856L3537.46 672.113Z" fill="#2D3342"/>
<path d="M3277.75 835.129C3282 835.971 3284.13 838.231 3284.13 841.909C3284.13 844.667 3283.05 846.735 3280.91 848.114C3278.76 849.493 3275.62 850.183 3271.49 850.183C3269 850.183 3266.6 850.125 3264.3 850.01L3264.48 841.392L3264.3 821.396L3273.27 821.339C3276.14 821.339 3278.36 821.952 3279.93 823.177C3281.54 824.365 3282.35 826.07 3282.35 828.291C3282.35 829.938 3281.94 831.336 3281.14 832.486C3280.33 833.635 3279.2 834.516 3277.75 835.129ZM3277.81 828.808C3277.81 827.391 3277.35 826.357 3276.43 825.706C3275.51 825.054 3274.03 824.729 3272 824.729H3268.5L3268.44 833.577L3273.55 833.75C3274.97 833.443 3276.02 832.907 3276.71 832.141C3277.44 831.336 3277.81 830.226 3277.81 828.808ZM3272 846.908C3274.49 846.908 3276.39 846.486 3277.69 845.643C3279.03 844.762 3279.7 843.479 3279.7 841.794C3279.7 840.415 3279.24 839.342 3278.32 838.576C3277.4 837.81 3276.01 837.293 3274.13 837.025L3268.44 837.082L3268.38 841.047L3268.5 846.735C3269.69 846.85 3270.85 846.908 3272 846.908ZM3301.96 841.794L3302.13 850.01H3297.83L3298.06 841.794L3298 840.013L3288.29 821.396H3293L3293.57 823.063L3300.01 835.359H3300.3L3307.31 823.235L3308.05 821.396H3312.65L3302.02 840.013L3301.96 841.794ZM3338.83 812.893C3341.48 812.893 3344.21 813.467 3347.05 814.616L3346.3 819.041L3345.5 819.27C3344.39 818.428 3343.2 817.776 3341.94 817.317C3340.71 816.857 3339.48 816.627 3338.26 816.627C3336.84 816.627 3335.6 816.915 3334.52 817.489C3333.49 818.064 3332.68 818.811 3332.11 819.73C3331.57 820.649 3331.31 821.607 3331.31 822.603C3331.31 823.637 3331.61 824.556 3332.23 825.361C3332.88 826.127 3333.68 826.797 3334.64 827.372C3335.6 827.946 3336.9 828.636 3338.55 829.44C3340.61 830.398 3342.28 831.298 3343.54 832.141C3344.81 832.945 3345.88 833.98 3346.76 835.244C3347.68 836.508 3348.14 838.04 3348.14 839.84C3348.14 841.755 3347.62 843.518 3346.59 845.126C3345.56 846.735 3344.1 848.018 3342.22 848.976C3340.35 849.934 3338.2 850.412 3335.79 850.412C3334.18 850.412 3332.49 850.202 3330.73 849.78C3329.01 849.321 3327.4 848.67 3325.9 847.827L3326.48 843.115L3327.11 842.828C3328.45 844.13 3329.93 845.107 3331.54 845.758C3333.18 846.371 3334.75 846.678 3336.25 846.678C3337.7 846.678 3338.99 846.39 3340.1 845.816C3341.25 845.241 3342.11 844.475 3342.68 843.518C3343.3 842.56 3343.6 841.545 3343.6 840.472C3343.6 838.863 3342.99 837.58 3341.76 836.623C3340.54 835.627 3338.68 834.554 3336.19 833.405C3334.16 832.409 3332.53 831.528 3331.31 830.762C3330.08 829.957 3329.03 828.942 3328.15 827.717C3327.26 826.453 3326.82 824.92 3326.82 823.12C3326.82 821.243 3327.32 819.519 3328.32 817.949C3329.35 816.378 3330.77 815.153 3332.57 814.272C3334.41 813.352 3336.5 812.893 3338.83 812.893ZM3366.91 821.109C3370.09 821.109 3372.85 821.779 3375.19 823.12L3374.38 827.085L3373.86 827.257C3372.91 826.453 3371.8 825.821 3370.53 825.361C3369.27 824.901 3367.91 824.671 3366.45 824.671C3363.62 824.671 3361.45 825.591 3359.96 827.429C3358.46 829.23 3357.72 831.93 3357.72 835.531C3357.72 839.17 3358.46 841.947 3359.96 843.862C3361.45 845.778 3363.62 846.735 3366.45 846.735C3367.83 846.735 3369.21 846.505 3370.59 846.046C3372.01 845.548 3373.27 844.897 3374.38 844.092L3374.9 844.264L3374.5 848.229C3371.89 849.646 3369.15 850.355 3366.28 850.355C3362.07 850.355 3358.83 849.11 3356.57 846.62C3354.31 844.092 3353.18 840.511 3353.18 835.876C3353.18 831.164 3354.37 827.525 3356.74 824.959C3359.15 822.392 3362.54 821.109 3366.91 821.109ZM3393.45 821.052C3397.63 821.052 3400.83 822.277 3403.05 824.729C3405.31 827.18 3406.44 830.647 3406.44 835.129C3406.44 839.993 3405.23 843.767 3402.82 846.448C3400.45 849.091 3397.04 850.412 3392.59 850.412C3388.46 850.412 3385.26 849.168 3383 846.678C3380.74 844.15 3379.61 840.568 3379.61 835.933C3379.61 831.183 3380.81 827.525 3383.23 824.959C3385.64 822.354 3389.05 821.052 3393.45 821.052ZM3393.05 824.671C3390.03 824.671 3387.77 825.533 3386.27 827.257C3384.82 828.981 3384.09 831.7 3384.09 835.416C3384.09 839.4 3384.82 842.292 3386.27 844.092C3387.73 845.892 3389.95 846.793 3392.94 846.793C3396 846.793 3398.28 845.912 3399.77 844.15C3401.27 842.388 3402.02 839.63 3402.02 835.876C3402.02 832.007 3401.27 829.172 3399.77 827.372C3398.32 825.572 3396.08 824.671 3393.05 824.671ZM3429.97 821.741L3429.69 825.361L3424.34 824.959H3421.47L3421.3 841.047L3421.47 850.01H3417.16L3417.33 841.392L3417.22 824.959H3414.35L3408.89 825.361L3408.54 824.959L3408.89 821.396H3429.74L3429.97 821.741ZM3455.06 821.741L3454.77 825.361L3449.43 824.959H3446.55L3446.38 841.047L3446.55 850.01H3442.24L3442.42 841.392L3442.3 824.959H3439.43L3433.97 825.361L3433.62 824.959L3433.97 821.396H3454.83L3455.06 821.741Z" fill="#2D3342"/>
<rect x="3172.57" y="770.568" width="370.864" height="123.883" stroke="#2D3341" stroke-width="3.13627"/>
<path d="M614.667 34.6667V69.3333H647.333H680V111.333V153.333H508H336V356V558.667H321.333H306.667V416V273.333H153.333C44.2667 273.333 0 273.733 0 274.8C0 275.6 4.93334 281.467 11.0667 287.867C17.0667 294.267 27.4667 305.467 34.1333 312.8C40.8 320 56.6667 337.067 69.3333 350.667C82 364.267 93.8667 377.333 95.7333 379.733L99.0667 384L91.8667 392.4C88 396.933 82.4 403.067 79.3333 406C76.4 408.933 68 418 60.6667 426C46.2667 441.733 34.8 454.133 14 476.4C6.66667 484.267 0.533333 491.2 0.266666 492C-0.133334 492.933 38.1333 493.333 115.867 493.333C200.933 493.333 232.133 493.733 232.8 494.8C233.333 495.733 234 510.4 234.4 527.467L235.067 558.667H211.467H188V661.333V764H212.667H237.333V785.333V806.667H274.133H310.933L310 785.333L308.933 764H322.533H336V863.333V962.667H374.667H413.333V1066V1169.33H451.333H489.333V1066V962.667H524.667H560V1066V1169.33H598H636V1066V962.667H779.333H922.667V1066V1169.33H960.667H998.667V1066V962.667H1034H1069.33V1066V1169.33H1107.33H1145.33V1066V962.667H1184H1222.67L1222.93 863.733L1223.33 764.667L1297.07 764.267L1370.67 764V661.333V558.667L1297.07 558.4L1223.33 558L1222.93 355.6L1222.67 153.333H1062.67H902.667V111.333V69.3333H934.667H966.667V34.6667V0H896.667H826.667V76.6667V153.333H791.333H756V76.6667V0H685.333H614.667V34.6667ZM560 458.667V558.667H524.667H489.333V459.6C489.333 405.067 489.733 360 490.267 359.6C490.667 359.067 506.667 358.667 525.6 358.667H560V458.667ZM1069.07 458.933L1069.33 558.667H1034H998.667V459.6C998.667 405.067 999.067 360 999.6 359.6C1000.13 359.067 1015.87 358.8 1034.53 358.933L1068.67 359.333L1069.07 458.933Z" fill="#8798C3"/>
</svg>
